<svg xmlns="http://www.w3.org/2000/svg" viewBox="0 0 136.6 140" xml:space="preserve">
  <path d="M68.3 6.4C32.2 6.4 3 35.6 3 71.7S32.2 137 68.3 137c36.1 0 65.3-29.2 65.3-65.3 0-36-29.3-65.3-65.3-65.3m-8.7 121.5c-.7.8-1.8 1.3-2.9 1.3-.3 0-.5 0-.8-.1-20.8-4.5-37.6-19.9-43.8-40.2-.4-1.3-.1-2.7.9-3.7.9-1 2.2-1.4 3.5-1.1L40 86.5c7.4.6 13.6 7.5 14.7 13.5l5.6 24.2c.5 1.3.2 2.7-.7 3.7m64.3-39c-6.2 20.4-23 35.8-43.8 40.2-.3.1-.5.1-.8.1-1.1 0-2.2-.5-2.9-1.3-.9-1-1.2-2.4-.8-3.7l5.6-24.2c1.1-6 7.3-12.8 14.7-13.5l23.5-2.6c1.3-.3 2.6.1 3.5 1.1 1 1.2 1.4 2.6 1 3.9M123 73l-24.5-.9c-5.1-.3-9.8-2.8-12.9-6.9-7.6-9.6-21.5-11.2-31-3.6-1.3 1.1-2.6 2.3-3.6 3.6-3.1 4.1-7.8 6.6-12.9 6.9l-24.6.9c-.9 0-3.8-3.7-3.8-3.9C11.1 36.7 38.6 11.6 71 13c30.4 1.3 54.7 25.7 56.1 56.1-.1.1-3.1 4-4.1 3.9" fill="#fff"/>
  <path d="M7.5 97.4c-2.8 1.2-4.1 4.4-2.9 7.2.1.1.1.3.2.4 6.8 12.9 17.3 23.5 30.2 30.2 2.7 1.4 6 .4 7.4-2.3.1-.1.1-.3.2-.4l3.1-7.3c1.1-2.6 0-5.6-2.4-6.9-9.1-4.9-16.6-12.4-21.5-21.5-1.3-2.5-4.3-3.5-6.9-2.4l-7.4 3zm7.3-48.3c2.6 1.1 5.6 0 6.9-2.4 13.9-25.7 46-35.4 71.7-21.5 9.1 4.9 16.6 12.4 21.5 21.5 1.3 2.5 4.3 3.5 6.9 2.4l7.3-3.1c2.8-1.2 4.1-4.4 2.9-7.2-.1-.1-.1-.3-.2-.4C113.4 3.3 70-10.2 34.9 8.2 22 15 11.5 25.5 4.8 38.4c-1.4 2.7-.4 6 2.3 7.4.1.1.3.2.4.2l7.3 3.1zm76.1 76.1c-1.1-2.6 0-5.6 2.4-6.9 9.1-4.9 16.6-12.4 21.5-21.5 1.3-2.5 4.3-3.5 6.9-2.4l7.3 3.1c2.8 1.2 4.1 4.4 2.9 7.2-.1.1-.1.3-.2.4-6.8 12.9-17.3 23.5-30.2 30.2-2.7 1.4-6 .4-7.4-2.3-.1-.1-.1-.3-.2-.4l-3-7.4z" fill="#ffc629"/>
  <path d="M68.3 3.4C30.6 3.4 0 34 0 71.7S30.6 140 68.3 140c37.7 0 68.3-30.6 68.3-68.3C136.5 34 106 3.5 68.3 3.4m0 133.6C32.2 137 3 107.8 3 71.7S32.2 6.4 68.3 6.4c36.1 0 65.3 29.2 65.3 65.3 0 36.1-29.3 65.3-65.3 65.3" fill="#1c1b1a"/>
  <path d="M54.7 100c-1.1-6-7.3-12.8-14.7-13.5L16.5 84c-1.3-.3-2.6.2-3.5 1.1-.9 1-1.3 2.4-.9 3.7 6.2 20.4 23 35.8 43.8 40.2.3.1.5.1.8.1 1.1 0 2.1-.5 2.9-1.3.9-1 1.2-2.4.8-3.7L54.7 100zm2.7 25.9c-.2.2-.5.3-.8.3C36.8 121.9 20.9 107.3 15 88c-.1-.3 0-.6.2-.9.1-.2.4-.3.6-.3h.4l23.7 2.6c6 .5 11.2 6.3 12.1 11.1v.1l5.6 24.3v.2c0 .3 0 .6-.2.8M85.5 79c0-9.5-7.7-17.2-17.2-17.2S51.1 69.5 51.1 79s7.7 17.2 17.2 17.2S85.5 88.5 85.5 79M68.3 94.8c-8.7 0-15.8-7.1-15.8-15.8 0-8.7 7.1-15.8 15.8-15.8 8.7 0 15.8 7.1 15.8 15.8 0 8.7-7.1 15.8-15.8 15.8" fill="#1c1b1a"/>
  <path d="M68.3 65.9c-7.2 0-13.1 5.9-13.1 13.1s5.9 13.1 13.1 13.1S81.4 86.2 81.4 79c0-7.2-5.9-13.1-13.1-13.1m0 24.8c-6.4 0-11.7-5.2-11.7-11.7 0-6.4 5.2-11.7 11.7-11.7C74.7 67.3 80 72.6 80 79c0 6.4-5.3 11.7-11.7 11.7" fill="#1c1b1a"/>
  <path d="M126.9 69.5v-.3C125.5 36.7 98.1 11.6 65.7 13 35.3 14.4 10.9 38.7 9.6 69.1c0 .3 0 .5.1.8-.1 1.5-.1 3.1-.1 4.6 0 .4.3.7.7.7.4 0 .7-.3.7-.7 0-.8 0-1.6.1-2.4.7.6 1.5.9 2.4.9h.1l24.4-.8c5.1-.3 9.9-2.8 12.9-6.9 7.6-9.6 21.5-11.2 31-3.6 1.3 1.1 2.6 2.3 3.6 3.6 3.1 4.1 7.8 6.6 12.9 6.9l24.6.8c1 0 1.9-.3 2.6-1 0 .9.1 1.8.1 2.7 0 .4.2.7.6.8.4 0 .7-.2.8-.6v-.1c0-1.8-.1-3.6-.2-5.3m-3.1.3c-.2.2-.4.3-.6.3l-24.5-.9c-4.3-.2-8.2-2.4-10.7-5.8-8.6-10.9-24.3-12.7-35.2-4.1-1.5 1.2-2.9 2.6-4.1 4.1-2.5 3.4-6.5 5.5-10.7 5.8l-24.5.9c-.2 0-.5-.1-.6-.3-.2-.2-.2-.4-.2-.6C13.9 38.5 40 14.6 70.8 16c28.9 1.3 52 24.4 53.2 53.2 0 .3-.1.5-.2.6m-4.3 14.3L96 86.6c-7.4.6-13.6 7.5-14.7 13.5l-5.6 24.2c-.4 1.3-.1 2.7.8 3.7.7.8 1.8 1.3 2.9 1.3.3 0 .5 0 .8-.1 20.8-4.5 37.6-19.9 43.8-40.3.4-1.3.1-2.7-.9-3.7s-2.3-1.4-3.6-1.1M121 88c-5.9 19.3-21.8 34-41.6 38.2-.3.1-.6 0-.8-.3-.2-.2-.3-.5-.2-.8v-.2l5.6-24.3v-.1c.9-4.8 6-10.6 12.1-11.1l23.6-2.6h.4c.2 0 .4.1.6.3.4.3.4.7.3.9" fill="#1c1b1a"/>
</svg>