<?xml version="1.0" encoding="utf-8"?>
<!-- Generator: Adobe Illustrator 27.0.1, SVG Export Plug-In . SVG Version: 6.00 Build 0)  -->
<svg version="1.1" id="Layer_1" xmlns="http://www.w3.org/2000/svg" xmlns:xlink="http://www.w3.org/1999/xlink" x="0px" y="0px"
	 viewBox="0 0 1600 559.3" style="enable-background:new 0 0 1600 559.3;" xml:space="preserve">
<line style="fill:none;stroke:#FFFFFF;stroke-miterlimit:10;" x1="0" y1="-467" x2="1600" y2="-467"/>
<path style="fill:none;stroke:#FFFFFF;stroke-miterlimit:10;" d="M0-423.1c5.2,0,314.8,8.4,320,8.4s314.9-8.4,320-8.4
	s314.8,8.4,320,8.4s314.8-8.4,320-8.4s314.8,8.4,320,8.4"/>
<path style="fill:none;stroke:#FFFFFF;stroke-miterlimit:10;" d="M0-379.4c10.3,0,309.7,16.7,320,16.7s309.7-16.7,320-16.7
	s309.7,16.8,320,16.8s309.7-16.7,320-16.7s309.7,16.7,320,16.7"/>
<path style="fill:none;stroke:#FFFFFF;stroke-miterlimit:10;" d="M0-335.5c15.5,0,304.5,25.1,320,25.1s304.5-25.1,320-25.1
	s304.5,25.1,320,25.1s304.5-25.1,320-25.1s304.5,25.1,320,25.1"/>
<path style="fill:none;stroke:#FFFFFF;stroke-miterlimit:10;" d="M0-291.6c20.6,0,299.3,33.5,320,33.5s299.4-33.5,320-33.5
	s299.3,33.5,320,33.5s299.4-33.5,320-33.5s299.4,33.5,320,33.5"/>
<path style="fill:none;stroke:#FFFFFF;stroke-miterlimit:10;" d="M0-247.8c25.8,0,294.2,41.9,320,41.9s294.2-41.9,320-41.9
	s294.2,41.9,320,41.9s294.2-41.9,320-41.9s294.2,41.9,320,41.9"/>
<path style="fill:none;stroke:#FFFFFF;stroke-miterlimit:10;" d="M0-203.9c31,0,289,50.2,320,50.2s289.1-50.2,320-50.2
	s289,50.2,320,50.2s289-50.2,320-50.2s289,50.2,320,50.2"/>
<path style="fill:none;stroke:#FFFFFF;stroke-miterlimit:10;" d="M0-160.1c36.1,0,283.8,58.6,320,58.6s283.9-58.6,320-58.6
	s283.9,58.6,320,58.6s283.9-58.6,320-58.6s283.9,58.6,320,58.6"/>
<path style="fill:none;stroke:#FFFFFF;stroke-miterlimit:10;" d="M0-116.2c41.3,0,278.7,67,320,67s278.7-67,320-67s278.7,67,320,67
	s278.7-67,320-67s278.7,67,320,67"/>
<path style="fill:none;stroke:#FFFFFF;stroke-miterlimit:10;" d="M0-72.3C46.5-72.3,273.5,3,320,3s273.6-75.3,320-75.3
	S913.5,3,960,3s273.6-75.3,320-75.3S1553.6,3,1600,3"/>
<path style="fill:none;stroke:#FFFFFF;stroke-miterlimit:10;" d="M0-28.5c51.6,0,268.4,83.7,320,83.7s268.4-83.7,320-83.7
	s268.4,83.7,320,83.7s268.4-83.7,320-83.7s268.4,83.7,320,83.7"/>
<path style="fill:none;stroke:#FFFFFF;stroke-miterlimit:10;" d="M0,15.4c56.8,0,263.2,92.1,320,92.1s263.2-92.1,320-92.1
	s263.2,92.1,320,92.1s263.2-92.1,320-92.1s263.2,92.1,320,92.1"/>
<path style="fill:none;stroke:#FFFFFF;stroke-miterlimit:10;" d="M0,59.2c61.9,0,258,100.5,320,100.5S578.1,59.1,640,59.1
	s258,100.5,320,100.5s258.1-100.5,320-100.5s258.1,100.5,320,100.5"/>
<path style="fill:none;stroke:#FFFFFF;stroke-miterlimit:10;" d="M0,103.1c67.1,0,252.9,108.8,320,108.8s252.9-108.8,320-108.8
	s252.9,108.8,320,108.8s252.9-108.8,320-108.8s252.9,108.8,320,108.8"/>
<path style="fill:none;stroke:#FFFFFF;stroke-miterlimit:10;" d="M0,146.9c72.3,0,247.7,117.2,320,117.2s247.8-117.2,320-117.2
	S887.7,264,960,264s247.7-117.2,320-117.2S1527.7,264,1600,264"/>
<path style="fill:none;stroke:#FFFFFF;stroke-miterlimit:10;" d="M0,190.8c77.4,0,242.6,125.6,320,125.6s242.6-125.6,320-125.6
	s242.6,125.6,320,125.6s242.6-125.6,320-125.6s242.6,125.6,320,125.6"/>
<path style="fill:none;stroke:#FFFFFF;stroke-miterlimit:10;" d="M0,234.6c82.6,0,237.4,133.9,320,133.9s237.4-133.9,320-133.9
	s237.4,133.9,320,133.9s237.4-133.9,320-133.9s237.4,133.9,320,133.9"/>
<path style="fill:none;stroke:#FFFFFF;stroke-miterlimit:10;" d="M0,278.5c87.7,0,232.2,142.3,320,142.3s232.3-142.3,320-142.3
	s232.2,142.3,320,142.3s232.3-142.3,320-142.3s232.3,142.3,320,142.3"/>
<path style="fill:none;stroke:#FFFFFF;stroke-miterlimit:10;" d="M0,322.2c92.9,0,227.1,150.7,320,150.7s227.1-150.7,320-150.7
	S867.1,473,960,473s227.1-150.7,320-150.7S1507.1,473,1600,473"/>
<path style="fill:none;stroke:#FFFFFF;stroke-miterlimit:10;" d="M0,366.1c98.1,0,221.9,159,320,159s221.9-159,320-159
	s221.9,159.1,320,159.1s221.9-159,320-159s221.9,159,320,159"/>
<path style="fill:none;stroke:#FFFFFF;stroke-miterlimit:10;" d="M0,410c103.2,0,216.8,167.4,320,167.4s216.8-167.4,320-167.4
	s216.8,167.5,320,167.5S1176.8,410,1280,410s216.8,167.4,320,167.4"/>
<path style="fill:none;stroke:#FFFFFF;stroke-miterlimit:10;" d="M0,453.9c108.4,0,211.6,175.8,320,175.8s211.6-175.8,320-175.8
	s211.6,175.8,320,175.8s211.6-175.8,320-175.8s211.6,175.8,320,175.8"/>
<path style="fill:none;stroke:#FFFFFF;stroke-miterlimit:10;" d="M0,497.6c113.5,0,206.4,184.2,320,184.2s206.5-184.2,320-184.2
	s206.4,184.2,320,184.2s206.5-184.2,320-184.2s206.5,184.2,320,184.2"/>
<path style="fill:none;stroke:#FFFFFF;stroke-miterlimit:10;" d="M0,541.5c118.7,0,201.3,192.5,320,192.5s201.3-192.5,320-192.5
	S841.3,734,960,734s201.3-192.5,320-192.5S1481.3,734,1600,734"/>
<path style="fill:none;stroke:#FFFFFF;stroke-miterlimit:10;" d="M0,585.3c123.9,0,196.1,200.9,320,200.9s196.1-200.9,320-200.9
	s196.1,200.9,320,200.9s196.1-200.9,320-200.9s196.1,200.9,320,200.9"/>
<path style="fill:none;stroke:#FFFFFF;stroke-miterlimit:10;" d="M0,629.2c129,0,191,209.3,320,209.3s191-209.3,320-209.3
	s191,209.3,320,209.3s191-209.3,320-209.3s191,209.3,320,209.3"/>
<path style="fill:none;stroke:#FFFFFF;stroke-miterlimit:10;" d="M0,673c134.2,0,185.8,217.6,320,217.6s185.8-217.6,320-217.6
	s185.8,217.6,320,217.6s185.8-217.6,320-217.6s185.8,217.6,320,217.6"/>
<path style="fill:none;stroke:#FFFFFF;stroke-miterlimit:10;" d="M0,717c139.4,0,180.6,226,320,226s180.6-226,320-226
	s180.6,226,320,226s180.6-226,320-226s180.6,226,320,226"/>
<path style="fill:none;stroke:#FFFFFF;stroke-miterlimit:10;" d="M0,760.8c144.5,0,175.5,234.4,320,234.4s175.5-234.4,320-234.4
	s175.5,234.4,320,234.4s175.5-234.4,320-234.4s175.5,234.4,320,234.4"/>
<path style="fill:none;stroke:#FFFFFF;stroke-miterlimit:10;" d="M0,804.7c149.7,0,170.3,242.8,320,242.8s170.3-242.8,320-242.8
	s170.3,242.8,320,242.8s170.3-242.8,320-242.8s170.3,242.8,320,242.8"/>
<path style="fill:none;stroke:#FFFFFF;stroke-miterlimit:10;" d="M0,848.5c154.8,0,165.2,251.1,320,251.1s165.2-251.1,320-251.1
	s165.2,251.1,320,251.1s165.2-251.1,320-251.1s165.2,251.1,320,251.1"/>
<path style="fill:none;stroke:#FFFFFF;stroke-miterlimit:10;" d="M0,892.3c160,0,160,259.5,320,259.5s160-259.5,320-259.5
	s160,259.5,320,259.5s160-259.5,320-259.5s160,259.5,320,259.5"/>
</svg>
