<svg xmlns="http://www.w3.org/2000/svg" viewBox="0 0 175 140" xml:space="preserve">
  <path d="M143.2 67.4 138.7 27c-1.6-14.5-13.9-25.5-28.5-25.5H63.1c-14.6 0-26.9 11-28.6 25.5L30 67.4h.1c-.3 3.7.4 8.2 2.6 13.8C35.6 87.6 41.5 92 48.4 93c25.3 3.7 51 3.7 76.4 0 6.9-1 12.8-5.5 15.7-11.8 2.2-5.6 2.9-10.1 2.7-13.8z" fill="#fff"/>
  <path d="M89.6 86.5c-22.9 0-46.6-2.7-55.5-8-2.7-1.6-4-3.4-4-5.4 0-.4.3-.7.7-.7.4 0 .7.3.7.7 0 1.4 1.1 2.9 3.3 4.2 16.7 10 86.2 10.7 103.3 1.2 2.3-1.3 3.5-2.7 3.5-4.1 0-.4.3-.7.7-.7.4 0 .7.3.7.7 0 2-1.4 3.8-4.2 5.3-8.3 4.6-28.5 6.8-49.2 6.8" fill="#dddede"/>
  <path d="M43.7 75.3c-.4 0-.7-.3-.7-.7 0-.3.2-.6.6-.7 2-.4 5.3-2.6 7.3-5.9 1.6-2.4 2-5.4 1.2-8.1-.1-.4.1-.7.5-.8.3-.1.7.1.8.4.9 3.1.4 6.5-1.3 9.2-2.2 3.7-5.8 6.1-8.2 6.5-.1.1-.2.1-.2.1m87.4 0h-.1c-2.4-.5-6-2.9-8.2-6.5-1.8-2.7-2.2-6.1-1.3-9.2.1-.4.5-.5.9-.4.3.1.5.5.4.8-.8 2.8-.4 5.7 1.2 8.1 2 3.3 5.2 5.5 7.3 5.9.4.1.6.4.5.8 0 .2-.3.5-.7.5M68.2 36.4c-3 0-5.3-2.4-5.4-5.3v-3.7c0-3 2.4-5.3 5.4-5.3.4 0 .7.3.7.7s-.3.7-.7.7c-2.2 0-4 1.8-4 4v3.7c0 2.2 1.8 4 4 4 .4 0 .7.3.7.7 0 .2-.3.5-.7.5m36.6 0c-.4 0-.7-.3-.7-.7 0-.4.3-.7.7-.7 2.2 0 4-1.8 4-4v-3.7c0-2.2-1.8-4-4-4-.4 0-.7-.3-.7-.7s.3-.7.7-.7c3 0 5.3 2.4 5.4 5.3v3.7c-.1 3.1-2.5 5.5-5.4 5.5m-65.5 4.5c-.4 0-.7-.3-.7-.7 0-.3.3-.6.6-.7 17.5-2.1 19.7-21 20.9-31.1.1-.4.4-.6.8-.6.4.1.6.4.6.7-1.3 10.6-3.6 30.2-22.2 32.4m94.4 0c-.1 0-.1 0 0 0-18.6-2.2-20.9-21.8-22.1-32.3 0-.4.2-.7.6-.7.4 0 .7.2.7.6 1.2 10.1 3.4 29 20.9 31.1.4 0 .6.4.6.8-.1.3-.4.5-.7.5m-18.3 23.7c-.2 0-.5-.1-.6-.3-3.2-5.6-9.4-6-15.5-6H75.7c-6.1 0-12.3.5-15.5 6-.2.3-.6.5-.9.3-.3-.2-.5-.6-.3-.9 3.6-6.2 10.2-6.7 16.7-6.7h23.6c6.5 0 13.1.5 16.7 6.7.2.3.1.7-.2.9h-.4" fill="#dddede"/>
  <path d="m144.6 67.3-4.5-40.4C138.4 11.5 125.5 0 110.1 0h-47c-15.4 0-28.3 11.5-30 26.8l-4.5 40.4v.4c-.3 3.7.5 8.4 2.8 14.2 3.1 6.8 9.4 11.6 16.8 12.6 12.7 1.9 25.5 2.8 38.4 2.8 12.9 0 25.7-.9 38.4-2.8 7.4-1.1 13.7-5.9 16.8-12.7 1.5-3.7 3-8.9 2.7-13.8.1-.2.1-.4.1-.6M133.7 57c4.3 1.9 6.9 4.9 7.7 9 .2 1 .3 1.9.3 2.9-.1 4.1-1 8.1-2.6 11.8-2.7 5.9-8.2 10-14.6 10.9-25.2 3.7-50.7 3.7-75.9 0-6.4-.9-11.9-5-14.6-10.9-1.6-3.7-2.5-7.8-2.6-11.8 0-1 .1-1.9.3-2.9.8-4 3.3-7 7.5-8.8.7-.3 1.1-1.2.8-1.9s-1.2-1.1-1.9-.8c-2.1.9-4 2.2-5.6 3.9L36 27.1C37.5 13.3 49.2 2.9 63.1 2.9h47.1c13.9 0 25.6 10.4 27.1 24.3l3.5 31.2c-1.7-1.7-3.7-3.1-5.9-4-.7-.3-1.6 0-1.9.8-.4.6-.1 1.5.7 1.8" fill="#dddede"/>
  <path d="M26.1 139.3h-4.3c-1.7 0-3.1-1.4-3.1-3.1v-23.5c0-5.4-2.1-10.5-5.9-14.3L7 92.5c-7.6-7.7-8.5-19.9-2-28.6l16.8-22.5c3.1-4.2 8.1-6.6 13.3-6.7h36.2v10.5H35.1c-1.9 0-3.7.9-4.9 2.4L13.5 70.2c-3.4 4.5-3 10.8 1 14.8l5.9 5.9c5.7 5.8 8.9 13.6 8.9 21.7v23.5c0 1.8-1.4 3.2-3.2 3.2" fill="#fbfcfc"/>
  <path d="M26.1 140h-4.3c-2.1 0-3.8-1.7-3.8-3.8v-23.5c0-5.2-2-10.2-5.7-13.8L6.5 93c-7.8-8-8.7-20.5-2-29.4l16.8-22.4c3.3-4.3 8.4-6.9 13.8-6.9H72V46H35.1c-1.7 0-3.3.8-4.3 2.2L14 70.6c-3.2 4.3-2.7 10.2 1 14l5.9 5.9c5.9 5.9 9.1 13.9 9.1 22.2v23.5c-.1 2.1-1.8 3.8-3.9 3.8m9-104.5c-5 0-9.7 2.4-12.8 6.4L5.6 64.3C-.7 72.8.1 84.5 7.5 92l5.9 5.9c3.9 3.9 6.1 9.2 6.1 14.8v23.5c0 1.3 1.1 2.4 2.4 2.4h4.3c1.3 0 2.4-1.1 2.4-2.4v-23.5c0-8-3.1-15.6-8.7-21.2L14 85.6c-4.2-4.3-4.6-10.9-1.1-15.7l16.8-22.4c1.3-1.7 3.3-2.7 5.4-2.7h35.6v-9.2l-35.6-.1z" fill="#1c1b1a"/>
  <path d="M13.8 67.2c1.1.8 2.7.6 3.5-.5l13.5-17.3c1.4-1.8 3.6-2.9 5.9-2.9h39c1.4 0 2.5-1.1 2.5-2.5v-7.7c0-1.4-1.1-2.5-2.5-2.5h-39c-6.3 0-12.2 3-16 8L7.2 59c-.9 1.1-.7 2.7.4 3.5l6.2 4.7z" fill="#ffc425"/>
  <path d="M15.3 69.1c-.9 0-1.7-.3-2.4-.8l-6.1-4.6C5 62.5 4.7 60 6 58.2l.1-.1 13.5-17.2c4.1-5.4 10.4-8.6 17.2-8.6h39c2.2 0 4 1.8 4 4V44c0 2.2-1.8 4-4 4h-39c-1.9 0-3.6.9-4.7 2.4L18.4 67.6c-.7 1-1.9 1.6-3.1 1.5m21.4-33.8c-5.9 0-11.4 2.8-14.9 7.4L8.3 59.9c-.3.5-.3 1.2.2 1.5l6.1 4.6c.5.4 1.1.3 1.5-.2l13.5-17.3c1.7-2.2 4.3-3.5 7-3.5h39c.6 0 1.1-.5 1.1-1.1v-7.6c0-.6-.5-1.1-1.1-1.1l-38.9.1z" fill="#1c1b1a"/>
  <path d="M148.9 139.3h4.3c1.7 0 3.1-1.4 3.1-3.1v-23.5c0-5.4 2.1-10.5 5.9-14.3l5.9-5.9c7.6-7.7 8.5-19.9 2-28.6l-16.8-22.5c-3.1-4.2-8.1-6.6-13.3-6.7h-36.2v10.5H140c1.9 0 3.7.9 4.9 2.4L161.7 70c3.4 4.5 3 10.8-1 14.8l-5.9 5.9c-5.7 5.8-8.9 13.6-8.9 21.7v23.5c-.2 2 1.2 3.4 3 3.4" fill="#fbfcfc"/>
  <path d="M153.2 140h-4.3c-2.1 0-3.8-1.7-3.8-3.8v-23.5c0-8.3 3.3-16.3 9.1-22.2l5.9-5.9c3.7-3.8 4.1-9.7 1-14l-16.8-22.4c-1-1.4-2.6-2.2-4.3-2.2h-36.9V34.1H140c5.4 0 10.6 2.6 13.8 6.9l16.8 22.4c6.7 9 5.8 21.5-2 29.4l-5.9 5.9c-3.7 3.7-5.7 8.6-5.7 13.8V136c0 2.3-1.7 4-3.8 4m-48.9-95.3h35.6c2.1 0 4.1 1 5.4 2.7l16.8 22.4c3.6 4.8 3.1 11.5-1.1 15.7l-5.9 5.9c-5.6 5.6-8.7 13.3-8.7 21.2v23.5c0 1.3 1.1 2.4 2.4 2.4h4.3c1.3 0 2.4-1.1 2.4-2.4v-23.5c0-5.5 2.2-10.9 6.1-14.8l5.9-5.9c7.4-7.5 8.2-19.2 1.9-27.7l-16.8-22.5c-3-4-7.7-6.4-12.8-6.4h-35.6v9.4z" fill="#1c1b1a"/>
  <path d="M161.2 67.2c-1.1.8-2.7.6-3.5-.5l-13.5-17.3c-1.4-1.8-3.6-2.9-5.9-2.9h-39c-1.4 0-2.5-1.1-2.5-2.5v-7.7c0-1.4 1.1-2.5 2.5-2.5h39c6.3 0 12.2 3 16 8L167.8 59c.9 1.1.7 2.7-.4 3.5l-6.2 4.7z" fill="#ffc425"/>
  <path d="M159.7 69.1c-1.2 0-2.4-.6-3.1-1.5L143 50.3c-1.1-1.5-2.9-2.4-4.7-2.4h-39c-2.2 0-4-1.8-4-4v-7.6c0-2.2 1.8-4 4-4h39c6.8 0 13.1 3.2 17.2 8.6L169 58.2c1.4 1.7 1 4.2-.7 5.6l-.1.1-6.1 4.6c-.7.4-1.5.6-2.4.6M99.3 35.3c-.6 0-1.1.5-1.1 1.1V44c0 .6.5 1.1 1.1 1.1h39c2.8 0 5.4 1.3 7 3.5l13.5 17.3c.4.5 1 .6 1.5.2l6.1-4.6c.5-.4.6-1 .2-1.5l-13.5-17.2c-3.5-4.7-9-7.4-14.9-7.5H99.3z" fill="#1c1b1a"/>
</svg>